<svg width="136" height="45" viewBox="0 0 136 45" fill="none" xmlns="http://www.w3.org/2000/svg">
<path d="M92 22C92 10.9543 100.954 2 112 2C123.046 2 132 10.9543 132 22C132 33.0457 123.046 42 112 42C100.954 42 92 33.0457 92 22Z" fill="url(#paint0_linear_4_17)"/>
<path d="M0.820312 8.30859H5.35156L13.5938 22.0977L21.8359 8.30859H26.3867L15.5469 25.4375V37H11.6602V25.4375L0.820312 8.30859ZM24.9414 32.7422H29.0234V37H24.9414V32.7422ZM50.4297 25.2422L46.0742 12.5664L41.4453 25.2422H50.4297ZM44.043 8.30859H48.4375L58.8477 37H54.5898L51.6797 28.4062H40.332L37.2266 37H33.2422L44.043 8.30859ZM62.0117 16.082H65.3516V19.6953C65.625 18.9922 66.2956 18.1393 67.3633 17.1367C68.431 16.1211 69.6615 15.6133 71.0547 15.6133C71.1198 15.6133 71.2305 15.6198 71.3867 15.6328C71.543 15.6458 71.8099 15.6719 72.1875 15.7109V19.4219C71.9792 19.3828 71.7839 19.3568 71.6016 19.3438C71.4323 19.3307 71.2435 19.3242 71.0352 19.3242C69.2643 19.3242 67.9036 19.8971 66.9531 21.043C66.0026 22.1758 65.5273 23.4844 65.5273 24.9688V37H62.0117V16.082ZM77.9297 31.4336C77.9297 32.4492 78.3008 33.25 79.043 33.8359C79.7852 34.4219 80.6641 34.7148 81.6797 34.7148C82.9167 34.7148 84.1146 34.4284 85.2734 33.8555C87.2266 32.9049 88.2031 31.349 88.2031 29.1875V26.3555C87.7734 26.6289 87.2201 26.8568 86.543 27.0391C85.8659 27.2214 85.2018 27.3516 84.5508 27.4297L82.4219 27.7031C81.1458 27.8724 80.1888 28.1393 79.5508 28.5039C78.4701 29.1159 77.9297 30.0924 77.9297 31.4336ZM86.4453 24.3242C87.2526 24.2201 87.793 23.8815 88.0664 23.3086C88.2227 22.9961 88.3008 22.5469 88.3008 21.9609C88.3008 20.763 87.8711 19.8971 87.0117 19.3633C86.1654 18.8164 84.9479 18.543 83.3594 18.543C81.5234 18.543 80.2214 19.0378 79.4531 20.0273C79.0234 20.5742 78.7435 21.388 78.6133 22.4688H75.332C75.3971 19.8906 76.2305 18.1003 77.832 17.0977C79.4466 16.082 81.3151 15.5742 83.4375 15.5742C85.8984 15.5742 87.8971 16.043 89.4336 16.9805C90.957 17.918 91.7188 19.3763 91.7188 21.3555V33.4062C91.7188 33.7708 91.7904 34.0638 91.9336 34.2852C92.0898 34.5065 92.4089 34.6172 92.8906 34.6172C93.0469 34.6172 93.2227 34.6107 93.418 34.5977C93.6133 34.5716 93.8216 34.5391 94.043 34.5V37.0977C93.4961 37.2539 93.0794 37.3516 92.793 37.3906C92.5065 37.4297 92.1159 37.4492 91.6211 37.4492C90.4102 37.4492 89.5312 37.0195 88.9844 36.1602C88.6979 35.7044 88.4961 35.0599 88.3789 34.2266C87.6628 35.1641 86.6341 35.9779 85.293 36.668C83.9518 37.3581 82.474 37.7031 80.8594 37.7031C78.9193 37.7031 77.3307 37.1172 76.0938 35.9453C74.8698 34.7604 74.2578 33.2826 74.2578 31.5117C74.2578 29.5716 74.8633 28.0677 76.0742 27C77.2852 25.9323 78.8737 25.2747 80.8398 25.0273L86.4453 24.3242ZM97.5 16.1797H101.074V37H97.5V16.1797ZM97.5 8.30859H101.074V12.293H97.5V8.30859Z" fill="white"/>
<defs>
<linearGradient id="paint0_linear_4_17" x1="132.009" y1="22.0094" x2="92.0094" y2="22.0094" gradientUnits="userSpaceOnUse">
<stop stop-color="#FFF641"/>
<stop offset="1" stop-color="#2BEA39"/>
</linearGradient>
</defs>
</svg>
