<svg width="161" height="54" viewBox="0 0 161 54" fill="none" xmlns="http://www.w3.org/2000/svg">
<circle cx="127" cy="27" r="27" fill="#FFF641"/>
<path d="M10.918 28.2031L0.722656 12.3438H4.6875L12.7539 24.9805L20.7617 12.3438H24.4922L14.5312 28.1445V40H10.918V28.2031ZM30.7422 40.2539C30.013 40.2539 29.4271 40.0326 28.9844 39.5898C28.5417 39.1471 28.3203 38.5612 28.3203 37.832C28.3203 37.1029 28.5417 36.5234 28.9844 36.0938C29.4271 35.651 30.013 35.4297 30.7422 35.4297C31.4714 35.4297 32.0573 35.651 32.5 36.0938C32.9427 36.5234 33.1641 37.1029 33.1641 37.832C33.1641 38.5612 32.9427 39.1471 32.5 39.5898C32.0573 40.0326 31.4714 40.2539 30.7422 40.2539ZM48.9648 12.3438H51.0156L62.9883 40H59.043L56.4258 33.9453H42.5781L39.7461 40H36.0352L48.9648 12.3438ZM55.0195 30.6641L52.5195 24.8633C52.207 24.1341 51.901 23.3789 51.6016 22.5977L50.8203 20.3906C50.3255 18.9583 50.0326 17.9818 49.9414 17.4609H49.707C49.6029 17.9818 49.3685 18.724 49.0039 19.6875C49.0039 19.6875 48.6719 20.5339 48.0078 22.2266C47.7083 22.9557 47.3828 23.6979 47.0312 24.4531L44.1211 30.6641H55.0195ZM78.2812 24.5508C77.487 24.082 76.6732 23.8477 75.8398 23.8477C75.0195 23.8477 74.3359 24.056 73.7891 24.4727C73.2552 24.8893 72.7865 25.4167 72.3828 26.0547C71.5885 27.2786 71.0547 28.7109 70.7812 30.3516V40H67.0703V20.4688H70.1367L70.7617 24.043C71.7643 22.207 73.0469 20.9896 74.6094 20.3906C75.1693 20.1823 75.6771 20.0781 76.1328 20.0781C76.6016 20.0781 76.9466 20.0911 77.168 20.1172C77.3893 20.1302 77.6042 20.1562 77.8125 20.1953C78.2292 20.2995 78.6654 20.4557 79.1211 20.6641L78.2812 24.5508ZM96.4258 37.5C94.043 39.4271 91.5365 40.3906 88.9062 40.3906C87.0703 40.3906 85.5273 39.9089 84.2773 38.9453C82.9362 37.9036 82.2656 36.543 82.2656 34.8633C82.2656 31.3997 84.5703 29.0885 89.1797 27.9297C91.0417 27.4609 93.2747 27.2005 95.8789 27.1484C95.8008 25.026 94.7656 23.776 92.7734 23.3984C92.1224 23.2682 91.5104 23.2031 90.9375 23.2031C90.3646 23.2031 89.8568 23.2292 89.4141 23.2812C88.9714 23.3333 88.5156 23.4049 88.0469 23.4961C87.0182 23.6914 86.1458 23.9323 85.4297 24.2188L84.3945 21.4453C86.2174 20.5339 88.418 20.0781 90.9961 20.0781C95.0195 20.0781 97.6693 21.3607 98.9453 23.9258C99.375 24.8112 99.5898 25.8659 99.5898 27.0898V33.3203C99.5898 34.6484 99.6875 35.5339 99.8828 35.9766C100.234 36.8229 100.853 37.3633 101.738 37.5977L101.191 40C98.7565 40.2865 97.168 39.4531 96.4258 37.5ZM89.3945 30.9961C88.1836 31.4518 87.3112 31.9596 86.7773 32.5195C86.2435 33.0664 85.9766 33.6589 85.9766 34.2969C85.9766 34.9349 86.0677 35.4232 86.25 35.7617C86.4323 36.0872 86.6732 36.3607 86.9727 36.582C87.5846 37.0378 88.3008 37.2656 89.1211 37.2656C89.9414 37.2656 90.6771 37.181 91.3281 37.0117C91.9922 36.8294 92.6042 36.5951 93.1641 36.3086C94.2578 35.7617 95.1628 35.0846 95.8789 34.2773V30.0586C92.7799 30.2148 90.6185 30.5273 89.3945 30.9961ZM111.426 12.4414C111.426 13.1706 111.204 13.7565 110.762 14.1992C110.319 14.6419 109.733 14.8633 109.004 14.8633C108.275 14.8633 107.689 14.6419 107.246 14.1992C106.803 13.7565 106.582 13.1706 106.582 12.4414C106.582 11.7122 106.803 11.1328 107.246 10.7031C107.689 10.2604 108.275 10.0391 109.004 10.0391C109.733 10.0391 110.319 10.2604 110.762 10.7031C111.204 11.1328 111.426 11.7122 111.426 12.4414ZM107.148 20.4688H110.859V40H107.148V20.4688Z" fill="black"/>
</svg>
